<svg width="111" height="76" viewBox="0 0 111 76" fill="none" xmlns="http://www.w3.org/2000/svg">
<path d="M14.7152 37.4098C14.7152 36.1663 14.7152 34.681 14.7152 32.9538C14.7843 31.1576 14.9225 29.3268 15.1297 27.4615C15.337 25.5962 15.6824 23.7654 16.166 21.9692C16.6496 20.1039 17.3059 18.4459 18.135 16.9951C19.0331 15.5443 20.1384 14.3698 21.4511 13.4717C22.8328 12.5736 24.5254 12.1245 26.5289 12.1245C28.5323 12.1245 30.2249 12.5736 31.6067 13.4717C32.9884 14.3698 34.1283 15.5443 35.0264 16.9951C35.9245 18.4459 36.5808 20.1039 36.9953 21.9692C37.4789 23.7654 37.8244 25.5962 38.0316 27.4615C38.308 29.3268 38.4461 31.1576 38.4461 32.9538C38.5152 34.681 38.5498 36.1663 38.5498 37.4098C38.5498 39.4824 38.4807 42.004 38.3425 44.9747C38.2043 47.8763 37.7553 50.7088 36.9953 53.4722C36.3045 56.1666 35.13 58.4809 33.472 60.4153C31.883 62.3497 29.5686 63.3169 26.5289 63.3169C23.5582 63.3169 21.2784 62.3497 19.6894 60.4153C18.1004 58.4809 16.926 56.1666 16.166 53.4722C15.4752 50.7088 15.0607 47.8763 14.9225 44.9747C14.7843 42.004 14.7152 39.4824 14.7152 37.4098ZM0 37.4098C0 44.6638 0.690856 50.7434 2.07257 55.6484C3.52336 60.4844 5.45776 64.3532 7.87576 67.2548C10.2938 70.1564 13.0917 72.229 16.2697 73.4725C19.5167 74.7161 22.9364 75.3378 26.5289 75.3378C30.1904 75.3378 33.6101 74.7161 36.7881 73.4725C40.0351 72.229 42.8676 70.1564 45.2856 67.2548C47.7727 64.3532 49.7071 60.4844 51.0888 55.6484C52.5396 50.7434 53.265 44.6638 53.265 37.4098C53.265 30.3631 52.5396 24.4563 51.0888 19.6894C49.7071 14.8534 47.7727 10.9846 45.2856 8.08302C42.8676 5.18142 40.0351 3.10885 36.7881 1.86531C33.6101 0.621772 30.1904 0 26.5289 0C22.9364 0 19.5167 0.621772 16.2697 1.86531C13.0917 3.10885 10.2938 5.18142 7.87576 8.08302C5.45776 10.9846 3.52336 14.8534 2.07257 19.6894C0.690856 24.4563 0 30.3631 0 37.4098Z" fill="white"/>
<path d="M59.2406 29.3268H73.3341C73.3341 27.3924 73.5068 25.458 73.8522 23.5236C74.2667 21.5202 74.923 19.7239 75.8212 18.135C76.7193 16.4769 77.8937 15.1643 79.3445 14.1971C80.8644 13.1608 82.6952 12.6427 84.8368 12.6427C88.0148 12.6427 90.6055 13.6444 92.6089 15.6479C94.6815 17.5823 95.7178 20.3112 95.7178 23.8345C95.7178 26.0453 95.1997 28.0142 94.1634 29.7413C93.1962 31.4685 91.9526 33.0229 90.4328 34.4046C88.982 35.7863 87.3584 37.0644 85.5622 38.2389C83.766 39.3442 82.0734 40.4496 80.4844 41.555C77.3756 43.6966 74.4049 45.8037 71.5724 47.8763C68.809 49.9489 66.391 52.2287 64.3184 54.7158C62.2458 57.1338 60.5878 59.8972 59.3442 63.0061C58.1698 66.1149 57.5826 69.7764 57.5826 73.9907H110.848V61.348H76.5466C78.3428 58.8609 80.4153 56.6847 82.7643 54.8194C85.1132 52.9541 87.5312 51.227 90.0182 49.638C92.5053 47.9799 94.9579 46.3219 97.3759 44.6638C99.8629 43.0058 102.074 41.175 104.008 39.1715C105.942 37.099 107.497 34.75 108.671 32.1248C109.846 29.4995 110.433 26.3561 110.433 22.6946C110.433 19.1713 109.742 15.9933 108.36 13.1608C107.048 10.3283 105.252 7.94484 102.972 6.01045C100.692 4.07605 98.0322 2.59071 94.9924 1.55442C92.0217 0.518142 88.8783 0 85.5622 0C81.2098 0 77.341 0.759943 73.9558 2.27983C70.6397 3.73063 67.8763 5.80319 65.6656 8.49753C63.4548 11.1228 61.7968 14.2316 60.6914 17.8241C59.586 21.3474 59.1024 25.1817 59.2406 29.3268Z" fill="white"/>
</svg>
