<svg width="109" height="77" viewBox="0 0 109 77" fill="none" xmlns="http://www.w3.org/2000/svg">
<path d="M20.4511 32.4786C22.3855 32.5477 24.3199 32.4095 26.2543 32.0641C28.1887 31.7187 29.9158 31.1314 31.4357 30.3024C32.9556 29.4043 34.1646 28.1953 35.0627 26.6754C36.0299 25.1555 36.5135 23.2902 36.5135 21.0795C36.5135 17.9706 35.4426 15.4836 33.301 13.6183C31.2284 11.7529 28.5341 10.8203 25.218 10.8203C23.1454 10.8203 21.3492 11.2348 19.8293 12.0638C18.3094 12.8928 17.0313 14.0328 15.9951 15.4836C15.0279 16.8653 14.3025 18.4542 13.8189 20.2505C13.3353 21.9776 13.128 23.7738 13.1971 25.6391H1.38345C1.52163 22.1158 2.17794 18.8688 3.35239 15.8981C4.52685 12.8583 6.11582 10.2331 8.1193 8.02232C10.1919 5.81158 12.6789 4.08444 15.5805 2.8409C18.4821 1.59736 21.7637 0.975586 25.4252 0.975586C28.2577 0.975586 31.0212 1.3901 33.7155 2.21913C36.4789 3.04815 38.9315 4.25715 41.0731 5.84612C43.2839 7.43509 45.0455 9.47311 46.3582 11.9602C47.6708 14.3782 48.3271 17.1762 48.3271 20.3541C48.3271 24.0156 47.4981 27.2281 45.84 29.9915C44.182 32.6859 41.5913 34.6548 38.0679 35.8983V36.1056C42.213 36.9346 45.4255 39.0072 47.7053 42.3233C50.0542 45.5703 51.2287 49.5428 51.2287 54.2406C51.2287 57.6949 50.5378 60.8037 49.1561 63.5671C47.7744 66.2615 45.9091 68.5758 43.5602 70.5102C41.2113 72.3755 38.4824 73.8263 35.3736 74.8626C32.2647 75.8989 28.9831 76.417 25.5289 76.417C21.3146 76.417 17.6186 75.8298 14.4406 74.6554C11.3318 73.4118 8.70653 71.6847 6.56487 69.4739C4.49231 67.2632 2.90334 64.6034 1.79797 61.4946C0.692599 58.3857 0.105371 54.9314 0.0362854 51.1317H11.8499C11.7117 55.5532 12.7826 59.2493 15.0624 62.22C17.4113 65.1215 20.9001 66.5723 25.5289 66.5723C29.4667 66.5723 32.7483 65.467 35.3736 63.2562C38.0679 60.9764 39.4151 57.7639 39.4151 53.6188C39.4151 50.7863 38.8624 48.541 37.757 46.883C36.6516 45.2249 35.2008 43.9814 33.4046 43.1523C31.6084 42.2542 29.5704 41.7015 27.2905 41.4943C25.0798 41.287 22.8 41.2179 20.4511 41.287V32.4786Z" fill="#5BA291"/>
<path d="M107.982 74.9662H58.4479C58.517 68.9558 59.9678 63.7053 62.8003 59.2147C65.6328 54.7242 69.5016 50.8208 74.4066 47.5047C76.7555 45.7776 79.2081 44.1195 81.7643 42.5306C84.3204 40.8725 86.6693 39.1108 88.811 37.2455C90.9526 35.3802 92.7143 33.3767 94.096 31.2351C95.4777 29.0243 96.2031 26.5027 96.2722 23.6702C96.2722 22.3576 96.0995 20.9759 95.7541 19.5251C95.4777 18.0052 94.8905 16.6235 93.9924 15.3799C93.0943 14.0673 91.8507 12.9965 90.2618 12.1675C88.6728 11.2693 86.6002 10.8203 84.0441 10.8203C81.6952 10.8203 79.7262 11.3039 78.1373 12.2711C76.6174 13.1692 75.3738 14.4473 74.4066 16.1053C73.5085 17.6943 72.8177 19.5942 72.3341 21.8049C71.9196 24.0156 71.6778 26.3991 71.6087 28.9552H59.795C59.795 24.9483 60.3132 21.2522 61.3495 17.867C62.4548 14.4127 64.0783 11.4421 66.22 8.95497C68.3617 6.46789 70.9524 4.53349 73.9921 3.15178C77.101 1.70099 80.6934 0.975586 84.7695 0.975586C89.191 0.975586 92.887 1.70099 95.8577 3.15178C98.8284 4.60258 101.212 6.43335 103.008 8.64408C104.873 10.8548 106.186 13.2728 106.946 15.8981C107.706 18.4542 108.086 20.9068 108.086 23.2557C108.086 26.1573 107.637 28.7825 106.739 31.1314C105.841 33.4804 104.632 35.6565 103.112 37.66C101.592 39.5944 99.8647 41.3906 97.9303 43.0487C95.9959 44.7068 93.9924 46.2612 91.9198 47.712C89.8473 49.1628 87.7747 50.5445 85.7021 51.8571C83.6296 53.1697 81.6952 54.4824 79.8989 55.795C78.1718 57.1076 76.6519 58.4893 75.3393 59.9401C74.0267 61.3218 73.1286 62.8072 72.645 64.3962H107.982V74.9662Z" fill="#5BA291"/>
</svg>
