<svg width="50" height="11" viewBox="0 0 50 11" fill="none" xmlns="http://www.w3.org/2000/svg">
<path d="M16.52 5.53C16.52 4.85 16.55 4.28 16.61 3.82C16.67 3.35333 16.7667 2.98 16.9 2.7C17.0333 2.42 17.2 2.22 17.4 2.1C17.6067 1.97333 17.8567 1.91 18.15 1.91C18.4367 1.91 18.6833 1.97333 18.89 2.1C19.0967 2.22 19.2667 2.42 19.4 2.7C19.5333 2.98 19.63 3.35333 19.69 3.82C19.75 4.28 19.78 4.85 19.78 5.53C19.78 6.21 19.75 6.78333 19.69 7.25C19.63 7.71 19.5333 8.08 19.4 8.36C19.2667 8.64 19.0967 8.84333 18.89 8.97C18.6833 9.09 18.4367 9.15 18.15 9.15C17.8567 9.15 17.6067 9.09 17.4 8.97C17.2 8.84333 17.0333 8.64 16.9 8.36C16.7667 8.08 16.67 7.71 16.61 7.25C16.55 6.78333 16.52 6.21 16.52 5.53ZM18.88 5.53C18.88 4.98333 18.8667 4.52667 18.84 4.16C18.8133 3.79333 18.77 3.5 18.71 3.28C18.6567 3.06 18.5833 2.90333 18.49 2.81C18.3967 2.71667 18.2833 2.67 18.15 2.67C18.0167 2.67 17.9033 2.71667 17.81 2.81C17.7167 2.90333 17.64 3.06 17.58 3.28C17.5267 3.5 17.4867 3.79333 17.46 4.16C17.4333 4.52667 17.42 4.98333 17.42 5.53C17.42 6.07667 17.4333 6.53333 17.46 6.9C17.4867 7.26667 17.5267 7.56 17.58 7.78C17.64 8 17.7167 8.15667 17.81 8.25C17.9033 8.34333 18.0167 8.39 18.15 8.39C18.2833 8.39 18.3967 8.34333 18.49 8.25C18.5833 8.15667 18.6567 8 18.71 7.78C18.77 7.56 18.8133 7.26667 18.84 6.9C18.8667 6.53333 18.88 6.07667 18.88 5.53ZM23.7769 2.75C23.5235 2.78333 23.2902 2.84 23.0769 2.92C22.8702 2.99333 22.6835 3.11333 22.5169 3.28C22.3502 3.44 22.2102 3.65333 22.0969 3.92C21.9902 4.18667 21.9102 4.52 21.8569 4.92C21.9969 4.86 22.1302 4.81667 22.2569 4.79C22.3902 4.76333 22.5135 4.75 22.6269 4.75C23.1069 4.75 23.4769 4.94 23.7369 5.32C24.0035 5.69333 24.1369 6.21 24.1369 6.87C24.1369 7.57667 24.0102 8.13333 23.7569 8.54C23.5102 8.94667 23.1169 9.15 22.5769 9.15C22.3035 9.15 22.0635 9.09667 21.8569 8.99C21.6502 8.88333 21.4769 8.71 21.3369 8.47C21.2035 8.22333 21.1002 7.90333 21.0269 7.51C20.9602 7.11 20.9269 6.62333 20.9269 6.05C20.9269 5.55 20.9735 5.06333 21.0669 4.59C21.1669 4.11667 21.3235 3.69667 21.5369 3.33C21.7569 2.95667 22.0402 2.65333 22.3869 2.42C22.7402 2.18667 23.1735 2.06 23.6869 2.04L23.7769 2.75ZM22.4169 5.45C22.3102 5.45 22.2035 5.47 22.0969 5.51C21.9902 5.54333 21.8902 5.58667 21.7969 5.64C21.7902 5.72 21.7869 5.80333 21.7869 5.89C21.7869 5.97 21.7869 6.05333 21.7869 6.14C21.7869 6.44667 21.7935 6.74 21.8069 7.02C21.8269 7.29333 21.8635 7.53667 21.9169 7.75C21.9702 7.95667 22.0469 8.12333 22.1469 8.25C22.2535 8.37 22.3935 8.43 22.5669 8.43C22.8269 8.43 23.0069 8.29333 23.1069 8.02C23.2135 7.74 23.2669 7.37 23.2669 6.91C23.2669 6.41 23.1969 6.04333 23.0569 5.81C22.9235 5.57 22.7102 5.45 22.4169 5.45ZM26.3538 8.53C26.3538 8.68333 26.2971 8.82 26.1838 8.94C26.0771 9.06 25.9338 9.12 25.7538 9.12C25.5738 9.12 25.4304 9.06 25.3238 8.94C25.2171 8.82 25.1638 8.68333 25.1638 8.53C25.1638 8.37 25.2171 8.23 25.3238 8.11C25.4304 7.99 25.5738 7.93 25.7538 7.93C25.9338 7.93 26.0771 7.99 26.1838 8.11C26.2971 8.23 26.3538 8.37 26.3538 8.53ZM26.3538 4.22C26.3538 4.37333 26.2971 4.51 26.1838 4.63C26.0771 4.75 25.9338 4.81 25.7538 4.81C25.5738 4.81 25.4304 4.75 25.3238 4.63C25.2171 4.51 25.1638 4.37333 25.1638 4.22C25.1638 4.06 25.2171 3.92 25.3238 3.8C25.4304 3.68 25.5738 3.62 25.7538 3.62C25.9338 3.62 26.0771 3.68 26.1838 3.8C26.2971 3.92 26.3538 4.06 26.3538 4.22ZM27.618 3.45C27.7446 3.37667 27.8746 3.28667 28.008 3.18C28.148 3.07333 28.2813 2.96 28.408 2.84C28.5346 2.71333 28.6513 2.58667 28.758 2.46C28.8713 2.32667 28.9646 2.19667 29.038 2.07H29.698V9H28.838V3.43C28.7246 3.55 28.5913 3.66333 28.438 3.77C28.2913 3.87667 28.1346 3.97667 27.968 4.07L27.618 3.45ZM33.1248 2.82C33.0915 3.3 33.0682 3.7 33.0548 4.02C33.0415 4.34 33.0282 4.59333 33.0148 4.78C33.6415 4.86667 34.1015 5.09333 34.3948 5.46C34.6882 5.82667 34.8348 6.32333 34.8348 6.95C34.8348 7.30333 34.7848 7.61667 34.6848 7.89C34.5848 8.16333 34.4448 8.39333 34.2648 8.58C34.0915 8.76667 33.8848 8.90667 33.6448 9C33.4048 9.1 33.1448 9.15 32.8648 9.15C32.6715 9.15 32.4748 9.12333 32.2748 9.07C32.0748 9.01667 31.8882 8.94 31.7148 8.84L31.9548 8.13C32.2415 8.29 32.5348 8.37 32.8348 8.37C33.1548 8.37 33.4248 8.25333 33.6448 8.02C33.8648 7.78667 33.9748 7.43 33.9748 6.95C33.9748 6.42333 33.8248 6.04667 33.5248 5.82C33.2315 5.58667 32.7815 5.45667 32.1748 5.43C32.2082 5.09667 32.2348 4.79333 32.2548 4.52C32.2748 4.24 32.2915 3.97 32.3048 3.71C32.3182 3.44333 32.3282 3.18 32.3348 2.92C32.3482 2.65333 32.3582 2.37 32.3648 2.07H34.7048V2.82H33.1248ZM40.4548 2.07C40.6148 2.57 40.7715 3.07667 40.9248 3.59C41.0848 4.09667 41.2382 4.63 41.3848 5.19C41.5382 5.75 41.6882 6.34333 41.8348 6.97C41.9882 7.59667 42.1415 8.27333 42.2948 9H41.3948C41.3415 8.7 41.2848 8.40333 41.2248 8.11C41.1715 7.81667 41.1148 7.52333 41.0548 7.23H38.8748C38.8082 7.52333 38.7482 7.81667 38.6948 8.11C38.6415 8.40333 38.5882 8.7 38.5348 9H37.6648C37.8115 8.27333 37.9615 7.59667 38.1148 6.97C38.2682 6.34333 38.4182 5.75 38.5648 5.19C38.7182 4.63 38.8715 4.09667 39.0248 3.59C39.1848 3.07667 39.3448 2.57 39.5048 2.07H40.4548ZM39.9648 3.09C39.7982 3.64333 39.6382 4.2 39.4848 4.76C39.3315 5.32 39.1848 5.89333 39.0448 6.48H40.8748C40.7415 5.89333 40.5982 5.32 40.4448 4.76C40.2915 4.2 40.1315 3.64333 39.9648 3.09ZM45.7441 8.04C45.6108 7.56 45.4741 7.1 45.3341 6.66C45.1941 6.22 45.0575 5.80667 44.9241 5.42C44.7975 5.02667 44.6741 4.67 44.5541 4.35C44.4341 4.03 44.3241 3.75 44.2241 3.51C44.1975 3.89 44.1741 4.31 44.1541 4.77C44.1408 5.22333 44.1241 5.69 44.1041 6.17C44.0908 6.65 44.0775 7.13333 44.0641 7.62C44.0575 8.1 44.0508 8.56 44.0441 9H43.1841C43.2041 8.4 43.2241 7.79667 43.2441 7.19C43.2641 6.57667 43.2875 5.97667 43.3141 5.39C43.3475 4.79667 43.3808 4.22 43.4141 3.66C43.4541 3.1 43.4975 2.57 43.5441 2.07H44.4341C44.5541 2.35667 44.6908 2.7 44.8441 3.1C44.9975 3.49333 45.1508 3.90667 45.3041 4.34C45.4641 4.77333 45.6175 5.20667 45.7641 5.64C45.9108 6.07333 46.0375 6.47 46.1441 6.83C46.2508 6.47 46.3741 6.07333 46.5141 5.64C46.6541 5.20667 46.8008 4.77333 46.9541 4.34C47.1075 3.90667 47.2575 3.49333 47.4041 3.1C47.5575 2.7 47.6941 2.35667 47.8141 2.07H48.7041C48.7508 2.57 48.7908 3.1 48.8241 3.66C48.8641 4.22 48.8975 4.79667 48.9241 5.39C48.9575 5.97667 48.9841 6.57667 49.0041 7.19C49.0241 7.79667 49.0441 8.4 49.0641 9H48.2041C48.1908 8.56 48.1775 8.09667 48.1641 7.61C48.1575 7.12333 48.1441 6.63667 48.1241 6.15C48.1108 5.65667 48.0941 5.18 48.0741 4.72C48.0541 4.25333 48.0308 3.82667 48.0041 3.44C47.9441 3.60667 47.8675 3.81667 47.7741 4.07C47.6875 4.31667 47.5941 4.58667 47.4941 4.88C47.4008 5.17333 47.3008 5.47667 47.1941 5.79C47.0941 6.09667 46.9975 6.39333 46.9041 6.68C46.8175 6.96667 46.7375 7.23 46.6641 7.47C46.5975 7.70333 46.5441 7.89333 46.5041 8.04H45.7441Z" fill="white"/>
<path d="M9.00023 9.08382C9.00023 8.42076 8.73683 7.78486 8.26798 7.31601C7.79912 6.84715 7.16322 6.58376 6.50016 6.58376C5.8371 6.58376 5.2012 6.84715 4.73234 7.31601C4.26349 7.78486 4.00009 8.42076 4.00009 9.08382" stroke="#5BA291" stroke-width="1.2381" stroke-linecap="round" stroke-linejoin="round"/>
<path d="M6.49985 1.08301V4.5831" stroke="#5BA291" stroke-width="1.2381" stroke-linecap="round" stroke-linejoin="round"/>
<path d="M2.61047 5.19325L3.32049 5.90327" stroke="#5BA291" stroke-width="1.2381" stroke-linecap="round" stroke-linejoin="round"/>
<path d="M1 9.08353H2.00003" stroke="#5BA291" stroke-width="1.2381" stroke-linecap="round" stroke-linejoin="round"/>
<path d="M11 9.08353H12" stroke="#5BA291" stroke-width="1.2381" stroke-linecap="round" stroke-linejoin="round"/>
<path d="M9.68024 5.90327L10.3903 5.19325" stroke="#5BA291" stroke-width="1.2381" stroke-linecap="round" stroke-linejoin="round"/>
<path d="M4.5004 3.08306L6.50045 1.08301L8.50051 3.08306" stroke="#5BA291" stroke-width="1.2381" stroke-linecap="round" stroke-linejoin="round"/>
</svg>
