<svg fill="none" height="26" viewBox="0 0 59 26" width="59" xmlns="http://www.w3.org/2000/svg">
    <path
        d="M33.7351 12.6601C34.4804 12.9284 35.0543 13.4054 35.4568 14.091C35.8742 14.7618 36.0829 15.6338 36.0829 16.7071C36.0829 18.138 35.7326 19.2709 35.032 20.1056C34.3463 20.9255 33.3029 21.3354 31.9017 21.3354C31.3502 21.3354 30.8136 21.2534 30.2918 21.0894C29.7701 20.9255 29.3155 20.7093 28.9279 20.441L29.4422 18.8759C29.785 19.0846 30.1428 19.2634 30.5154 19.4125C30.903 19.5616 31.3055 19.6361 31.7228 19.6361C32.483 19.6361 33.0718 19.4051 33.4892 18.943C33.9215 18.466 34.1376 17.7132 34.1376 16.6847C34.1376 15.6562 33.8991 14.8811 33.4221 14.3593C32.96 13.8376 32.2147 13.5768 31.1862 13.5768H30.6049V11.9446H31.0968C31.9911 11.9446 32.6545 11.7061 33.0867 11.2291C33.519 10.7521 33.7351 10.0888 33.7351 9.23911C33.7351 8.43418 33.5637 7.83794 33.2209 7.45038C32.878 7.04792 32.4234 6.84669 31.857 6.84669C31.4694 6.84669 31.0968 6.92122 30.739 7.07028C30.3962 7.21934 30.0981 7.40566 29.8447 7.62925L29.0845 6.22063C29.472 5.86289 29.9266 5.59458 30.4484 5.4157C30.985 5.23683 31.5141 5.14739 32.0359 5.14739C33.1985 5.14739 34.0929 5.51259 34.7189 6.24299C35.345 6.97339 35.658 7.94228 35.658 9.14967C35.658 9.99932 35.4866 10.7223 35.1438 11.3185C34.8158 11.8998 34.3463 12.347 33.7351 12.6601ZM45.3773 7.02556C44.8108 7.10009 44.2891 7.22679 43.8121 7.40566C43.35 7.56963 42.9327 7.83794 42.56 8.21059C42.1874 8.56834 41.8743 9.04533 41.6209 9.64157C41.3824 10.2378 41.2036 10.9831 41.0843 11.8775C41.3973 11.7433 41.6955 11.6464 41.9787 11.5868C42.2768 11.5272 42.5526 11.4974 42.806 11.4974C43.8792 11.4974 44.7065 11.9222 45.2878 12.7718C45.8841 13.6066 46.1822 14.7618 46.1822 16.2375C46.1822 17.8176 45.899 19.0622 45.3325 19.9715C44.781 20.8808 43.9016 21.3354 42.6942 21.3354C42.083 21.3354 41.5464 21.2161 41.0843 20.9776C40.6222 20.7391 40.2347 20.3516 39.9216 19.815C39.6235 19.2634 39.3925 18.548 39.2285 17.6685C39.0794 16.7741 39.0049 15.686 39.0049 14.4041C39.0049 13.2861 39.1093 12.198 39.3179 11.1396C39.5415 10.0813 39.8918 9.14222 40.3688 8.32239C40.8607 7.48765 41.4942 6.80942 42.2693 6.28771C43.0594 5.766 44.0283 5.48278 45.176 5.43806L45.3773 7.02556ZM42.3364 13.0625C42.0979 13.0625 41.8594 13.1072 41.6209 13.1967C41.3824 13.2712 41.1588 13.3681 40.9501 13.4873C40.9352 13.6662 40.9278 13.8525 40.9278 14.0463C40.9278 14.2252 40.9278 14.4115 40.9278 14.6053C40.9278 15.291 40.9427 15.9468 40.9725 16.5729C41.0172 17.184 41.0992 17.7281 41.2185 18.2051C41.3377 18.6672 41.5091 19.0399 41.7327 19.3231C41.9712 19.5914 42.2842 19.7255 42.6718 19.7255C43.2531 19.7255 43.6556 19.42 43.8792 18.8088C44.1177 18.1828 44.2369 17.3555 44.2369 16.3269C44.2369 15.209 44.0804 14.3892 43.7674 13.8674C43.4693 13.3308 42.9923 13.0625 42.3364 13.0625Z"
        fill="white" />
    <path
        d="M49.9142 5.03441C50.1894 5.03441 50.4508 5.08027 50.6985 5.172C50.9553 5.26373 51.18 5.39674 51.3727 5.57103C51.5653 5.74531 51.7167 5.96088 51.8267 6.21772C51.9368 6.46539 51.9918 6.74516 51.9918 7.05705C51.9918 7.36893 51.9368 7.65329 51.8267 7.91013C51.7167 8.1578 51.5653 8.36878 51.3727 8.54307C51.18 8.71735 50.9553 8.85036 50.6985 8.94209C50.4508 9.03382 50.1894 9.07968 49.9142 9.07968C49.639 9.07968 49.3775 9.03382 49.1299 8.94209C48.8822 8.85036 48.6621 8.71735 48.4694 8.54307C48.2768 8.36878 48.1254 8.1578 48.0154 7.91013C47.9053 7.65329 47.8503 7.36893 47.8503 7.05705C47.8503 6.74516 47.9053 6.46539 48.0154 6.21772C48.1254 5.96088 48.2768 5.74531 48.4694 5.57103C48.6621 5.39674 48.8822 5.26373 49.1299 5.172C49.3775 5.08027 49.639 5.03441 49.9142 5.03441ZM49.9142 7.96517C50.1527 7.96517 50.3591 7.8872 50.5333 7.73126C50.7076 7.56615 50.7948 7.34141 50.7948 7.05705C50.7948 6.77268 50.7076 6.54795 50.5333 6.38283C50.3591 6.21772 50.1527 6.13516 49.9142 6.13516C49.6757 6.13516 49.4693 6.21772 49.295 6.38283C49.1207 6.54795 49.0336 6.77268 49.0336 7.05705C49.0336 7.34141 49.1207 7.56615 49.295 7.73126C49.4693 7.8872 49.6757 7.96517 49.9142 7.96517ZM52.9644 12.148C52.9644 11.616 53.0469 11.1207 53.212 10.662C53.3771 10.1942 53.6111 9.79059 53.9138 9.45119C54.2256 9.11179 54.6017 8.84577 55.042 8.65314C55.4823 8.46051 55.9777 8.36419 56.5281 8.36419C57.2069 8.36419 57.849 8.48803 58.4544 8.7357L58.0966 10.0979C57.904 10.0153 57.6838 9.94653 57.4362 9.89149C57.1977 9.83645 56.9408 9.80894 56.6656 9.80894C56.0144 9.80894 55.519 10.0153 55.1796 10.4281C54.8402 10.8317 54.6705 11.405 54.6705 12.148C54.6705 12.8635 54.8311 13.4323 55.1521 13.8542C55.4732 14.267 56.0144 14.4734 56.7757 14.4734C57.0601 14.4734 57.3399 14.4459 57.6151 14.3908C57.8902 14.3358 58.1287 14.267 58.3305 14.1844L58.5645 15.5604C58.381 15.6521 58.1012 15.7347 57.7251 15.8081C57.3582 15.8814 56.9775 15.9181 56.5831 15.9181C55.9685 15.9181 55.4319 15.8264 54.9732 15.6429C54.5238 15.4503 54.1477 15.1889 53.845 14.8587C53.5514 14.5193 53.3313 14.1202 53.1845 13.6616C53.0377 13.1938 52.9644 12.6892 52.9644 12.148Z"
        fill="white" />
    <path clip-rule="evenodd" d="M21.7108 11.944C21.7108 14.411 19.7109 16.411 17.2438 16.411C14.7767 16.411 12.7767 14.411 12.7767 11.944C12.7767 9.47688 14.7767 7.47691 17.2438 7.47691C19.7109 7.47691 21.7108 9.47688 21.7108 11.944Z"
        fill-rule="evenodd"
        stroke="white" stroke-width="1.52883" />
    <g clip-path="url(#clip0_301_148)">
        <line stroke="#5BA291" stroke-linecap="round" stroke-linejoin="round" stroke-width="1.52883" x1="24.6013"
            x2="23.6936" y1="12.3023" y2="12.3023" />
    </g>
    <g clip-path="url(#clip1_301_148)">
        <line stroke="#5BA291" stroke-linecap="round" stroke-linejoin="round" stroke-width="1.52883" x1="10.7941"
            x2="9.88632" y1="12.3023" y2="12.3023" />
    </g>
    <g clip-path="url(#clip2_301_148)">
        <line stroke="white" stroke-linecap="round" stroke-linejoin="round" stroke-width="1.52883" x1="24.6013"
            x2="23.6936" y1="12.3023" y2="12.3023" />
    </g>
    <g clip-path="url(#clip3_301_148)">
        <line stroke="white" stroke-linecap="round" stroke-linejoin="round" stroke-width="1.52883" x1="10.7941"
            x2="9.88632" y1="12.3023" y2="12.3023" />
    </g>
    <g clip-path="url(#clip4_301_148)">
        <line stroke="white" stroke-linecap="round" stroke-linejoin="round" stroke-width="1.52883" x1="23.4364"
            x2="22.6502" y1="15.933" y2="15.4791" />
    </g>
    <g clip-path="url(#clip5_301_148)">
        <line stroke="white" stroke-linecap="round" stroke-linejoin="round" stroke-width="1.52883" x1="20.6123"
            x2="20.1585" y1="18.495" y2="17.7089" />
    </g>
    <g clip-path="url(#clip6_301_148)">
        <line stroke="white" stroke-linecap="round" stroke-linejoin="round" stroke-width="1.52883" x1="13.7087"
            x2="13.2549" y1="6.53762" y2="5.75149" />
    </g>
    <g clip-path="url(#clip7_301_148)">
        <line stroke="white" stroke-linecap="round" stroke-linejoin="round" stroke-width="1.52883" x1="16.8855"
            x2="16.8855" y1="19.3015" y2="18.3937" />
    </g>
    <line stroke="white" stroke-linecap="round" stroke-linejoin="round" stroke-width="1.52883" x1="16.8855" x2="16.8855"
        y1="5.49416" y2="4.58642" />
    <g clip-path="url(#clip8_301_148)">
        <line stroke="white" stroke-linecap="round" stroke-linejoin="round" stroke-width="1.52883" x1="13.2548"
            x2="13.7087" y1="18.1367" y2="17.3506" />
    </g>
    <g clip-path="url(#clip9_301_148)">
        <line stroke="white" stroke-linecap="round" stroke-linejoin="round" stroke-width="1.52883" x1="20.8079"
            x2="21.2618" y1="6.466" y2="5.67987" />
    </g>
    <g clip-path="url(#clip10_301_148)">
        <line stroke="white" stroke-linecap="round" stroke-linejoin="round" stroke-width="1.52883" x1="10.6929"
            x2="11.4791" y1="15.3123" y2="14.8585" />
    </g>
    <g clip-path="url(#clip11_301_148)">
        <line stroke="white" stroke-linecap="round" stroke-linejoin="round" stroke-width="1.52883" x1="22.6504"
            x2="23.4365" y1="8.40855" y2="7.95468" />
    </g>
    <path
        d="M21.3047 11.9439C21.3047 14.1867 19.4865 16.0049 17.2437 16.0049C15.0009 16.0049 13.1828 14.1867 13.1828 11.9439C13.1828 9.70111 15.0009 7.88297 17.2437 7.88297C19.4865 7.88297 21.3047 9.70111 21.3047 11.9439Z"
        fill="#5BA291" />
    <path clip-rule="evenodd" d="M11.4824 10.7517C11.4824 10.7517 11.5573 11.1318 11.5828 11.1354C12.961 11.3319 13.995 12.1358 13.995 13.5683C13.995 15.1383 12.7223 16.411 11.1524 16.411H3.84266C2.2727 16.411 1 15.1383 1 13.5683C1 12.1358 2.05959 10.9508 3.43777 10.7543C3.46331 10.7506 3.48833 10.7499 3.51261 10.7517C3.87876 8.88513 5.52368 7.47691 7.49752 7.47691C9.47135 7.47691 11.1163 8.88513 11.4824 10.7517Z"
        fill="#F3F3F3"
        fill-rule="evenodd" />
    <path
        d="M4.05766 16.411C2.36896 16.411 1 15.0777 1 13.433C1 11.9964 2.0444 10.7974 3.43404 10.5169C3.91176 8.76661 5.55 7.47691 7.49752 7.47691C9.69916 7.47691 11.5055 9.12514 11.6868 11.2238C12.9907 11.3981 13.995 12.4874 13.995 13.8052C13.995 15.2444 12.7972 16.411 11.3196 16.411H4.05766Z"
        stroke="#1C232D" stroke-linecap="round" stroke-linejoin="round" stroke-width="1.52883" />
    <path clip-rule="evenodd" d="M17.6837 14.1448C17.6837 14.1448 17.7834 14.6516 17.8175 14.6564C19.6551 14.9185 21.0338 15.9903 21.0338 17.9003C21.0338 19.9936 19.3369 21.6906 17.2436 21.6906H7.49731C5.40403 21.6906 3.70709 19.9936 3.70709 17.9003C3.70709 15.9903 5.11988 14.4103 6.95746 14.1483C6.99151 14.1434 7.02486 14.1424 7.05724 14.1448C7.54543 11.6561 9.73867 9.77844 12.3704 9.77844C15.0022 9.77844 17.1955 11.6561 17.6837 14.1448Z"
        fill="#F3F3F3"
        fill-rule="evenodd" />
    <path
        d="M7.78397 21.6906C5.53237 21.6906 3.70709 19.9128 3.70709 17.7199C3.70709 15.8044 5.09963 14.2057 6.95248 13.8318C7.58945 11.498 9.77376 9.77844 12.3704 9.77844C15.306 9.77844 17.7145 11.9761 17.9562 14.7743C19.6947 15.0067 21.0338 16.4591 21.0338 18.2162C21.0338 20.135 19.4367 21.6906 17.4665 21.6906H7.78397Z"
        stroke="#1C232D" stroke-linecap="round" stroke-linejoin="round" stroke-width="1.52883" />
    <defs>
        <clipPath id="clip0_301_148">
            <rect fill="white" height="1.62438" rx="0.81219" width="3.24876" x="22.523"
                y="11.1317" />
        </clipPath>
        <clipPath id="clip1_301_148">
            <rect fill="white" height="1.62438" rx="0.81219" width="3.24876" x="8.71585"
                y="11.1317" />
        </clipPath>
        <clipPath id="clip2_301_148">
            <rect fill="white" height="1.62438" rx="0.81219" width="3.24876" x="22.523"
                y="11.1317" />
        </clipPath>
        <clipPath id="clip3_301_148">
            <rect fill="white" height="1.62438" rx="0.81219" width="3.24876" x="8.71585"
                y="11.1317" />
        </clipPath>
        <clipPath id="clip4_301_148">
            <rect fill="white" height="1.62438" rx="0.812189" transform="rotate(30 22.2218 13.8803)" width="3.24876"
                x="22.2218" y="13.8803" />
        </clipPath>
        <clipPath id="clip5_301_148">
            <rect fill="white" height="1.62438" rx="0.81219" transform="rotate(60 20.5869 16.1098)" width="3.24876"
                x="20.5869" y="16.1098" />
        </clipPath>
        <clipPath id="clip6_301_148">
            <rect fill="white" height="1.62438" rx="0.81219" transform="rotate(60 13.6833 4.15234)" width="3.24876"
                x="13.6833" y="4.15234" />
        </clipPath>
        <clipPath id="clip7_301_148">
            <rect fill="white" height="1.62438" rx="0.81219" transform="rotate(90 18.0559 17.2232)" width="3.24876"
                x="18.0559" y="17.2232" />
        </clipPath>
        <clipPath id="clip8_301_148">
            <rect fill="white" height="1.62438" rx="0.81219" transform="rotate(120 15.3076 16.922)" width="3.24876"
                x="15.3076" y="16.922" />
        </clipPath>
        <clipPath id="clip9_301_148">
            <rect fill="white" height="1.62438" rx="0.81219" transform="rotate(120 22.2112 4.96461)" width="3.24876"
                x="22.2112" y="4.96461" />
        </clipPath>
        <clipPath id="clip10_301_148">
            <rect fill="white" height="1.62438" rx="0.81219" transform="rotate(150 13.078 15.2869)" width="3.24876"
                x="13.078" y="15.2869" />
        </clipPath>
        <clipPath id="clip11_301_148">
            <rect fill="white" height="1.62438" rx="0.81219" transform="rotate(150 25.0353 8.38312)" width="3.24876"
                x="25.0353" y="8.38312" />
        </clipPath>
    </defs>
</svg>
