<svg width="24" height="24" viewBox="0 0 24 24" fill="none" xmlns="http://www.w3.org/2000/svg">
<path d="M8.67003 14H4.00003C2.90003 14 2.00003 14.9 2.00003 16V22H8.67003V14Z" stroke="white" stroke-width="1.5" stroke-miterlimit="10" stroke-linecap="round" stroke-linejoin="round"/>
<path d="M13.33 10H10.66C9.55999 10 8.65999 10.9 8.65999 12V22H15.33V12C15.33 10.9 14.44 10 13.33 10Z" stroke="white" stroke-width="1.5" stroke-miterlimit="10" stroke-linecap="round" stroke-linejoin="round"/>
<path d="M20 17H15.33V22H22V19C22 17.9 21.1 17 20 17Z" stroke="white" stroke-width="1.5" stroke-miterlimit="10" stroke-linecap="round" stroke-linejoin="round"/>
<path d="M12.52 2.07001L13.05 3.13C13.12 3.28 13.31 3.42 13.47 3.44L14.43 3.60001C15.04 3.70001 15.19 4.14999 14.75 4.57999L14 5.32999C13.87 5.45999 13.8 5.69999 13.84 5.86999L14.05 6.79001C14.22 7.52001 13.83 7.80001 13.19 7.42001L12.29 6.89001C12.13 6.79001 11.86 6.79001 11.7 6.89001L10.8 7.42001C10.16 7.80001 9.77001 7.52001 9.94001 6.79001L10.15 5.86999C10.19 5.69999 10.12 5.44999 9.99002 5.32999L9.25002 4.59C8.81002 4.15 8.95002 3.70998 9.57002 3.60998L10.53 3.45001C10.69 3.42001 10.88 3.28001 10.95 3.14001L11.48 2.07999C11.77 1.49999 12.23 1.50001 12.52 2.07001Z" fill="#5BA291"/>
</svg>
